{
  "accessors": [
    {
      "bufferView": 2,
      "componentType": 5126,
      "count": 25745,
      "max": [
        0.9720159769058228,
        0.5284730195999146,
        0.0439240001142025
      ],
      "min": [
        -4.004581928253174,
        -0.610372006893158,
        -3.139427900314331
      ],
      "type": "VEC3"
    },
    {
      "bufferView": 2,
      "byteOffset": 308940,
      "componentType": 5126,
      "count": 25745,
      "max": [
        0.9999925494194031,
        0.9999926090240479,
        0.9999845623970032
      ],
      "min": [
        -0.9999925494194031,
        -0.9999925494194031,
        -0.9998623728752136
      ],
      "type": "VEC3"
    },
    {
      "bufferView": 1,
      "componentType": 5126,
      "count": 25745,
      "max": [
        2.289983034133911,
        0.9976770281791687
      ],
      "min": [
        0.0023930000606924295,
        0.002996981143951416
      ],
      "type": "VEC2"
    },
    {
      "bufferView": 0,
      "componentType": 5125,
      "count": 26037,
      "type": "SCALAR"
    },
    {
      "bufferView": 2,
      "byteOffset": 617880,
      "componentType": 5126,
      "count": 66,
      "max": [
        0.3972409963607788,
        0.27785399556159973,
        -0.03590400144457817
      ],
      "min": [
        -0.3972339928150177,
        0.0016449999529868364,
        -0.4882979989051819
      ],
      "type": "VEC3"
    },
    {
      "bufferView": 2,
      "byteOffset": 618672,
      "componentType": 5126,
      "count": 66,
      "max": [
        0.9829123616218567,
        0.12501762807369232,
        -0.18407414853572845
      ],
      "min": [
        -0.9764591455459595,
        -0.935533881187439,
        -0.992152750492096
      ],
      "type": "VEC3"
    },
    {
      "bufferView": 1,
      "byteOffset": 205960,
      "componentType": 5126,
      "count": 66,
      "max": [
        0.6805959939956665,
        0.33500802516937256
      ],
      "min": [
        0.2910659909248352,
        0.13303500413894653
      ],
      "type": "VEC2"
    },
    {
      "bufferView": 0,
      "byteOffset": 104148,
      "componentType": 5125,
      "count": 66,
      "type": "SCALAR"
    }
  ],
  "asset": {
    "extras": {
      "author": "intermezzo9 (https://sketchfab.com/intermezzo9)",
      "license": "CC-BY-4.0 (http://creativecommons.org/licenses/by/4.0/)",
      "source": "https://sketchfab.com/3d-models/akai-mobile-legends-8ae70fafd4fa4cc4a32c02535ced154b",
      "title": "Akai - Mobile Legends"
    },
    "generator": "Sketchfab-14.87.0",
    "version": "2.0"
  },
  "bufferViews": [
    {
      "buffer": 0,
      "byteLength": 104412,
      "name": "floatBufferViews",
      "target": 34963
    },
    {
      "buffer": 0,
      "byteLength": 206488,
      "byteOffset": 104412,
      "byteStride": 8,
      "name": "floatBufferViews",
      "target": 34962
    },
    {
      "buffer": 0,
      "byteLength": 619464,
      "byteOffset": 310900,
      "byteStride": 12,
      "name": "floatBufferViews",
      "target": 34962
    }
  ],
  "buffers": [
    {
      "byteLength": 930364,
      "uri": "scene.bin"
    }
  ],
  "extensionsUsed": [
    "KHR_materials_specular"
  ],
  "images": [
    {
      "uri": "textures/xiongmoa.001_baseColor.png"
    }
  ],
  "materials": [
    {
      "doubleSided": true,
      "name": "xiongmoa.001",
      "pbrMetallicRoughness": {
        "baseColorTexture": {
          "index": 0
        },
        "metallicFactor": 0.0,
        "roughnessFactor": 0.9
      }
    },
    {
      "doubleSided": true,
      "extensions": {
        "KHR_materials_specular": {
          "specularColorFactor": [
            1.0,
            1.0,
            1.0
          ],
          "specularFactor": 1.0
        }
      },
      "name": "Texture2Dxiongmao_skin_high_d_0112.dds.001",
      "pbrMetallicRoughness": {
        "baseColorFactor": [
          0.8,
          0.8,
          0.8,
          1.0
        ],
        "metallicFactor": 0.0
      }
    }
  ],
  "meshes": [
    {
      "name": "Object_0",
      "primitives": [
        {
          "attributes": {
            "NORMAL": 1,
            "POSITION": 0,
            "TEXCOORD_0": 2
          },
          "indices": 3,
          "material": 0,
          "mode": 4
        }
      ]
    },
    {
      "name": "Object_1",
      "primitives": [
        {
          "attributes": {
            "NORMAL": 5,
            "POSITION": 4,
            "TEXCOORD_0": 6
          },
          "indices": 7,
          "material": 1,
          "mode": 4
        }
      ]
    }
  ],
  "nodes": [
    {
      "children": [
        1
      ],
      "matrix": [
        1.0,
        0.0,
        0.0,
        0.0,
        0.0,
        2.220446049250313e-16,
        -1.0,
        0.0,
        0.0,
        1.0,
        2.220446049250313e-16,
        0.0,
        0.0,
        0.0,
        0.0,
        1.0
      ],
      "name": "Sketchfab_model"
    },
    {
      "children": [
        2
      ],
      "name": "root"
    },
    {
      "children": [
        3
      ],
      "matrix": [
        1.0,
        0.0,
        0.0,
        0.0,
        0.0,
        2.220446049250313e-16,
        1.0,
        0.0,
        0.0,
        -1.0,
        2.220446049250313e-16,
        0.0,
        0.0,
        0.0,
        0.0,
        1.0
      ],
      "name": "GLTF_SceneRootNode"
    },
    {
      "children": [
        4,
        5
      ],
      "matrix": [
        1.0,
        0.0,
        0.0,
        0.0,
        0.0,
        -3.371747936409264e-07,
        0.999999999999943,
        0.0,
        0.0,
        -0.999999999999943,
        -3.371747936409264e-07,
        0.0,
        0.0,
        0.0,
        0.0,
        1.0
      ],
      "name": "AKAI_0"
    },
    {
      "mesh": 0,
      "name": "Object_4"
    },
    {
      "mesh": 1,
      "name": "Object_5"
    }
  ],
  "samplers": [
    {
      "magFilter": 9729,
      "minFilter": 9987,
      "wrapS": 10497,
      "wrapT": 10497
    }
  ],
  "scene": 0,
  "scenes": [
    {
      "name": "Sketchfab_Scene",
      "nodes": [
        0
      ]
    }
  ],
  "textures": [
    {
      "sampler": 0,
      "source": 0
    }
  ]
}
