{
  "accessors": [
    {
      "bufferView": 2,
      "componentType": 5126,
      "count": 17178,
      "max": [
        0.7891780138015747,
        0.5121549963951111,
        0.0018530000234022737
      ],
      "min": [
        -0.7854909896850586,
        -0.24662500619888306,
        -1.855146050453186
      ],
      "type": "VEC3"
    },
    {
      "bufferView": 2,
      "byteOffset": 206136,
      "componentType": 5126,
      "count": 17178,
      "max": [
        0.9999924898147583,
        0.9999924898147583,
        0.9998006224632263
      ],
      "min": [
        -0.9921554923057556,
        -0.9999938011169434,
        -0.9990620017051697
      ],
      "type": "VEC3"
    },
    {
      "bufferView": 1,
      "componentType": 5126,
      "count": 17178,
      "max": [
        0.9939519762992859,
        0.997518002986908
      ],
      "min": [
        0.004654000047594309,
        0.003966987133026123
      ],
      "type": "VEC2"
    },
    {
      "bufferView": 0,
      "componentType": 5125,
      "count": 17178,
      "type": "SCALAR"
    },
    {
      "bufferView": 2,
      "byteOffset": 412272,
      "componentType": 5126,
      "count": 204,
      "max": [
        0.2506459951400757,
        0.4565100073814392,
        -0.0005440000095404685
      ],
      "min": [
        -0.2506389915943146,
        -0.001395000028423965,
        -0.12621599435806274
      ],
      "type": "VEC3"
    },
    {
      "bufferView": 2,
      "byteOffset": 414720,
      "componentType": 5126,
      "count": 204,
      "max": [
        0.9966267347335815,
        0.9794803261756897,
        0.9607813358306885
      ],
      "min": [
        -0.9843103885650635,
        -0.8972744941711426,
        -0.8666629791259766
      ],
      "type": "VEC3"
    },
    {
      "bufferView": 1,
      "byteOffset": 137424,
      "componentType": 5126,
      "count": 204,
      "max": [
        0.8195210099220276,
        0.9190379977226257
      ],
      "min": [
        0.38716599345207214,
        0.39954298734664917
      ],
      "type": "VEC2"
    },
    {
      "bufferView": 0,
      "byteOffset": 68712,
      "componentType": 5125,
      "count": 204,
      "type": "SCALAR"
    }
  ],
  "asset": {
    "extras": {
      "author": "intermezzo9 (https://sketchfab.com/intermezzo9)",
      "license": "CC-BY-4.0 (http://creativecommons.org/licenses/by/4.0/)",
      "source": "https://sketchfab.com/3d-models/bruno-dj-mobile-legends-52bb338ed66c44dea9c9477a88b47491",
      "title": "Bruno DJ - Mobile Legends"
    },
    "generator": "Sketchfab-14.87.0",
    "version": "2.0"
  },
  "bufferViews": [
    {
      "buffer": 0,
      "byteLength": 69528,
      "name": "floatBufferViews",
      "target": 34963
    },
    {
      "buffer": 0,
      "byteLength": 139056,
      "byteOffset": 69528,
      "byteStride": 8,
      "name": "floatBufferViews",
      "target": 34962
    },
    {
      "buffer": 0,
      "byteLength": 417168,
      "byteOffset": 208584,
      "byteStride": 12,
      "name": "floatBufferViews",
      "target": 34962
    }
  ],
  "buffers": [
    {
      "byteLength": 625752,
      "uri": "scene.bin"
    }
  ],
  "images": [
    {
      "uri": "textures/material_baseColor.png"
    }
  ],
  "materials": [
    {
      "doubleSided": true,
      "name": "material_0",
      "pbrMetallicRoughness": {
        "metallicFactor": 0.0,
        "roughnessFactor": 0.6
      }
    },
    {
      "doubleSided": true,
      "name": "material",
      "pbrMetallicRoughness": {
        "baseColorTexture": {
          "index": 0
        },
        "metallicFactor": 0.0,
        "roughnessFactor": 0.9
      }
    }
  ],
  "meshes": [
    {
      "name": "Object_0",
      "primitives": [
        {
          "attributes": {
            "NORMAL": 1,
            "POSITION": 0,
            "TEXCOORD_0": 2
          },
          "indices": 3,
          "material": 1,
          "mode": 4
        }
      ]
    },
    {
      "name": "Object_1",
      "primitives": [
        {
          "attributes": {
            "NORMAL": 5,
            "POSITION": 4,
            "TEXCOORD_0": 6
          },
          "indices": 7,
          "material": 0,
          "mode": 4
        }
      ]
    }
  ],
  "nodes": [
    {
      "children": [
        1
      ],
      "matrix": [
        1.0,
        0.0,
        0.0,
        0.0,
        0.0,
        2.220446049250313e-16,
        -1.0,
        0.0,
        0.0,
        1.0,
        2.220446049250313e-16,
        0.0,
        0.0,
        0.0,
        0.0,
        1.0
      ],
      "name": "Sketchfab_model"
    },
    {
      "children": [
        2
      ],
      "name": "root"
    },
    {
      "children": [
        3
      ],
      "matrix": [
        1.0,
        0.0,
        0.0,
        0.0,
        0.0,
        2.220446049250313e-16,
        1.0,
        0.0,
        0.0,
        -1.0,
        2.220446049250313e-16,
        0.0,
        0.0,
        0.0,
        0.0,
        1.0
      ],
      "name": "GLTF_SceneRootNode"
    },
    {
      "children": [
        4,
        5
      ],
      "matrix": [
        1.0,
        0.0,
        0.0,
        0.0,
        0.0,
        -3.371747936409264e-07,
        0.999999999999943,
        0.0,
        0.0,
        -0.999999999999943,
        -3.371747936409264e-07,
        0.0,
        0.0,
        0.0,
        0.0,
        1.0
      ],
      "name": "BRUNO_0"
    },
    {
      "mesh": 0,
      "name": "Object_4"
    },
    {
      "mesh": 1,
      "name": "Object_5"
    }
  ],
  "samplers": [
    {
      "magFilter": 9729,
      "minFilter": 9987,
      "wrapS": 10497,
      "wrapT": 10497
    }
  ],
  "scene": 0,
  "scenes": [
    {
      "name": "Sketchfab_Scene",
      "nodes": [
        0
      ]
    }
  ],
  "textures": [
    {
      "sampler": 0,
      "source": 0
    }
  ]
}
